<?xml version="1.0" encoding="utf-8"?>
<!-- Generator: Adobe Illustrator 17.0.0, SVG Export Plug-In . SVG Version: 6.00 Build 0)  -->
<!DOCTYPE svg PUBLIC "-//W3C//DTD SVG 1.1//EN" "http://www.w3.org/Graphics/SVG/1.1/DTD/svg11.dtd">
<svg version="1.1" id="Layer_1" xmlns="http://www.w3.org/2000/svg" xmlns:xlink="http://www.w3.org/1999/xlink" x="0px" y="0px"
	 width="512px" height="512px" viewBox="0 0 512 512" enable-background="new 0 0 512 512" xml:space="preserve">
<g>
	<g>
		<path d="M509.237,388.204c0,6.255-5.071,11.326-11.326,11.326H14.089c-6.255,0-11.326-5.071-11.326-11.326V123.796
			c0-6.255,5.071-11.326,11.326-11.326h483.822c6.255,0,11.326,5.071,11.326,11.326V388.204z"/>
		<g>
			<path fill="#FFFFFF" d="M470.689,387.435H41.311v-4.343c0-12.074-9.823-21.897-21.897-21.897h-4.343V150.806h4.343
				c12.074,0,21.897-9.823,21.897-21.898v-4.343h429.378v4.343c0,12.075,9.823,21.898,21.897,21.898h4.343v210.388h-4.343
				c-12.074,0-21.897,9.823-21.897,21.898V387.435z M49.69,378.749h412.62c1.912-13.396,12.537-24.021,25.933-25.934v-193.63
				c-13.396-1.912-24.021-12.538-25.933-25.934H49.69c-1.912,13.396-12.537,24.022-25.933,25.934v193.631
				C37.153,354.728,47.778,365.353,49.69,378.749z"/>
		</g>
		<circle fill="#FFFFFF" cx="256" cy="256" r="100.388"/>
	</g>
	<g>
		<g>
			<defs>
				<path id="SVGID_1_" d="M229.751,207.211c4.305,0,8.173,0.696,11.617,2.079c3.444,1.392,6.399,3.292,8.863,5.703
					c2.463,2.417,4.345,5.213,5.643,8.393c1.285,3.18,1.934,6.597,1.934,10.266c0,5.636-1.18,10.518-3.551,14.631
					c-2.371,4.12-6.238,7.246-11.617,9.399v0.265c2.596,0.716,4.742,1.808,6.451,3.285c1.696,1.484,3.072,3.226,4.159,5.233
					c1.073,2.02,1.854,4.232,2.345,6.65c0.49,2.41,0.834,4.829,1.007,7.246c0.092,1.523,0.186,3.311,0.278,5.365
					c0.08,2.066,0.239,4.166,0.464,6.312c0.225,2.146,0.582,4.179,1.073,6.107c0.49,1.921,1.218,3.557,2.212,4.894h-21.064
					c-1.178-3.04-1.894-6.663-2.158-10.868c-0.266-4.206-0.663-8.234-1.206-12.075c-0.716-5.014-2.24-8.683-4.57-11.008
					c-2.319-2.332-6.121-3.49-11.407-3.49h-21.062v37.442h-21.076v-95.828H229.751z M222.254,250.569
					c4.821,0,8.451-1.08,10.861-3.226c2.412-2.146,3.63-5.636,3.63-10.465c0-4.657-1.218-8.034-3.63-10.141
					c-2.41-2.098-6.04-3.152-10.861-3.152h-23.09v26.985H222.254z"/>
			</defs>
			<use xlink:href="#SVGID_1_"  overflow="visible"/>
			<clipPath id="SVGID_2_">
				<use xlink:href="#SVGID_1_"  overflow="visible"/>
			</clipPath>
			<rect x="152.487" y="190.388" clip-path="url(#SVGID_2_)" width="66.872" height="146.395"/>
		</g>
		<g>
			<defs>
				<path id="SVGID_3_" d="M289.017,285.799c0.848,1.47,1.935,2.682,3.285,3.622c1.339,0.941,2.888,1.631,4.623,2.081
					c1.75,0.444,3.563,0.669,5.445,0.669c1.337,0,2.755-0.153,4.225-0.471c1.47-0.311,2.809-0.802,4.027-1.477
					c1.206-0.669,2.212-1.563,3.021-2.682c0.795-1.119,1.205-2.524,1.205-4.227c0-2.868-1.907-5.014-5.696-6.445
					c-3.802-1.43-9.114-2.861-15.909-4.292c-2.769-0.628-5.485-1.363-8.122-2.218c-2.649-0.848-4.993-1.968-7.047-3.352
					c-2.066-1.39-3.709-3.133-4.967-5.232c-1.245-2.107-1.881-4.677-1.881-7.724c0-4.471,0.875-8.14,2.623-11.001
					c1.749-2.868,4.04-5.126,6.902-6.782c2.875-1.656,6.093-2.815,9.671-3.49c3.575-0.67,7.245-1.008,11.008-1.008
					c3.762,0,7.405,0.365,10.941,1.08c3.524,0.716,6.69,1.921,9.459,3.623c2.769,1.696,5.073,3.954,6.914,6.776
					c1.829,2.816,2.929,6.378,3.285,10.671h-18.121c-0.264-3.671-1.656-6.148-4.159-7.453c-2.504-1.291-5.458-1.947-8.863-1.947
					c-1.073,0-2.225,0.073-3.483,0.205c-1.259,0.133-2.398,0.425-3.418,0.875c-1.032,0.444-1.907,1.092-2.622,1.94
					c-0.728,0.855-1.073,1.994-1.073,3.425c0,1.702,0.623,3.086,1.881,4.159c1.245,1.073,2.888,1.948,4.887,2.623
					c2.027,0.669,4.319,1.271,6.929,1.808c2.582,0.536,5.218,1.119,7.908,1.742c2.768,0.629,5.484,1.39,8.12,2.286
					c2.636,0.894,4.995,2.079,7.047,3.557c2.067,1.477,3.71,3.311,4.967,5.503c1.245,2.192,1.882,4.902,1.882,8.121
					c0,4.563-0.928,8.384-2.755,11.472c-1.842,3.093-4.225,5.57-7.18,7.451c-2.954,1.875-6.332,3.199-10.134,3.961
					c-3.802,0.754-7.67,1.139-11.604,1.139c-4.04,0-7.974-0.404-11.815-1.206c-3.842-0.808-7.26-2.153-10.268-4.027
					c-3.007-1.881-5.457-4.365-7.378-7.451c-1.934-3.086-2.982-6.955-3.166-11.612h18.121
					C287.733,282.553,288.17,284.322,289.017,285.799z"/>
			</defs>
			<use xlink:href="#SVGID_3_"  overflow="visible"/>
			<clipPath id="SVGID_4_">
				<use xlink:href="#SVGID_3_"  overflow="visible"/>
			</clipPath>
			<rect x="264.151" y="216.186" clip-path="url(#SVGID_4_)" width="37.61" height="102.044"/>
		</g>
	</g>
</g>
</svg>
