<?xml version="1.0" encoding="utf-8"?>
<!-- Generator: Adobe Illustrator 23.0.0, SVG Export Plug-In . SVG Version: 6.00 Build 0)  -->
<svg version="1.1" id="Layer_1" xmlns="http://www.w3.org/2000/svg" xmlns:xlink="http://www.w3.org/1999/xlink" x="0px" y="0px"
	 viewBox="0 0 527.69 483.33" style="enable-background:new 0 0 527.69 483.33;" xml:space="preserve">
<style type="text/css">
	.st0{fill:#26378D;stroke:#26378D;stroke-miterlimit:10;}
	.st1{fill:#04B5DA;stroke:#04B5DA;stroke-miterlimit:10;}
	.st2{fill:#008CC2;stroke:#008CC2;stroke-miterlimit:10;}
	.st3{fill:#F36F21;stroke:#F36F21;stroke-miterlimit:10;}
	.st4{fill:#A42072;stroke:#A42072;stroke-miterlimit:10;}
	.st5{fill:none;stroke:#050003;stroke-width:10;stroke-miterlimit:10;}
	.st6{fill:#FFFFFF;stroke:#FFFFFF;stroke-miterlimit:10;}
	.st7{fill:#000002;stroke:#000002;stroke-miterlimit:10;}
</style>
<title>Icon</title>
<ellipse class="st0" cx="340.95" cy="231.83" rx="91.54" ry="107.85"/>
<path class="st1" d="M253.31,270.4c53-44.98,113.16-57.58,180.49-37.79l-6.67,57.47l-38.77,55.89l-66.22,7.75l-45.26-29
	L253.31,270.4z"/>
<path class="st2" d="M55.94,179.08C215.96-15.32,426-47.64,513,146.02C378.75,35.55,306.41,58.21,246.81,108.23
	C167.87,110.72,106.28,137.17,55.94,179.08z"/>
<path class="st3" d="M103.98,357c3.9-119.41,45.63-207.22,142.83-248.77C139.04,116.29,55.47,156.77,4,240.49L103.98,357z"/>
<path class="st4" d="M513,333.38C450.67,516.02,252.01,499.15,103.98,357c3.71-118.09,44.65-206.45,142.83-248.77
	C103.98,308.19,300.05,544.36,513,333.38z"/>
<ellipse class="st5" cx="341.6" cy="237.34" rx="95.44" ry="118.87"/>
<ellipse class="st6" cx="407.82" cy="194.83" rx="7.79" ry="9.45"/>
<ellipse class="st7" cx="344.85" cy="242.06" rx="65.57" ry="81.87"/>
<ellipse class="st6" cx="392.89" cy="170.42" rx="13.63" ry="16.53"/>
</svg>
